<svg xmlns="http://www.w3.org/2000/svg" viewBox="0 0 24 24" width="24" height="24" fill="currentColor">
    <path d="M12.49 13l-.85 2.83c-.21.71.13 1.45.8 1.74l5.42 2.33.26 1.51c.09.52.62.85 1.15.72.41-.1.69-.43.73-.83l.09-.62h-.01l.3-1.87c.1-.56-.1-1.14-.54-1.52l-2.96-2.59 1.05-3.52c.11-.37.05-.77-.17-1.1l-.47-.72c-.57-.86-1.65-1.1-2.51-.56l-.19.14-4.66 3.33c-.36.26-.67.62-.67 1.12 0 .5.33.86.69 1.12l2.54 1.49zm1.1-5.99C14.69 7 15.69 6 15.69 4.8s-.99-2.2-2.1-2.2c-1.11 0-2.1.99-2.1 2.2s1 2.21 2.1 2.21zM9.01 18.32l2.67-8.92-2.65-1.6c-.81-.53-1.01-1.59-.46-2.39l.47-.72c.66-1 1.95-1.3 2.97-.72.25.14.83.25 1.17.25h.28c.32 0 .81-.16 1.07-.34l1.35-.97c.96-.69 2.29-.46 2.97.52l.47.72c.49.75.49 1.48.17 2.22l-.95 2.94 2.63 2.31c.67.59 1.04 1.45.92 2.35l-.3 1.87-.11.79c-.16.85-.9 1.46-1.76 1.46-.22 0-.45-.04-.67-.13l-5.42-2.33c-.91-.39-1.4-1.33-1.18-2.3z"/>
</svg>