<svg xmlns="http://www.w3.org/2000/svg" xmlns:xlink="http://www.w3.org/1999/xlink" viewBox="0,0,256,256" width="24px" height="24px" fill-rule="nonzero"><g fill="#68b2a0" fill-rule="nonzero" stroke="none" stroke-width="1" stroke-linecap="butt" stroke-linejoin="miter" stroke-miterlimit="10" stroke-dasharray="" stroke-dashoffset="0" font-family="none" font-weight="none" font-size="none" text-anchor="none" style="mix-blend-mode: normal"><g transform="scale(10.66667,10.66667)"><path d="M12,1c-3.29875,0 -6,2.70125 -6,6v1h-0.5c-1.36633,0 -2.5,1.13367 -2.5,2.5v8c0,1.36633 1.13367,2.5 2.5,2.5h13c1.36633,0 2.5,-1.13367 2.5,-2.5v-8c0,-1.36633 -1.13367,-2.5 -2.5,-2.5h-0.5v-1c0,-3.29875 -2.70125,-6 -6,-6zM12,3.5c1.94725,0 3.5,1.55275 3.5,3.5v1h-7v-1c0,-1.94725 1.55275,-3.5 3.5,-3.5zM5.5,10.5h13v8h-13z"></path></g></g></svg>